<svg xmlns="http://www.w3.org/2000/svg" xml:space="preserve" width="2000" height="154" data-id="lg_WUZ5AAW1alXAPiYbzU" data-version="1" viewBox="0 0 2000 154"><g data-padding="20"><g fill="#f35525"><path d="M1017.267 144.034h-34.248a5.71 5.71 0 0 1-5.709-5.708V80.675c0-12.558 10.275-22.833 22.833-22.833s22.832 10.275 22.832 22.833v57.65a5.71 5.71 0 0 1-5.708 5.709m-28.54-11.13h23.117v-52.23c0-6.278-5.137-11.7-11.416-11.7s-11.701 5.136-11.701 11.7Z"/><path d="M1051.515 144.034H948.77a5.71 5.71 0 0 1-5.708-5.708v-85.62c0-3.14 2.569-5.709 5.708-5.709s5.708 2.569 5.708 5.708v79.913h91.615V52.705c0-3.14 2.568-5.708 5.708-5.708s5.708 2.569 5.708 5.708v85.62c-.286 3.14-2.854 5.709-5.994 5.709"/><path d="M1058.936 144.034H940.779c-3.14 0-5.708-2.569-5.708-5.708s2.569-5.708 5.708-5.708h118.442a5.71 5.71 0 0 1 5.708 5.708c-.285 3.14-2.854 5.708-5.993 5.708m2.283-79.627c-1.142 0-2.283-.286-3.14-1.142l-58.222-40.813-58.222 41.098c-2.568 1.713-5.993 1.142-7.706-1.427s-1.141-5.993 1.427-7.705l61.362-43.382c1.998-1.427 4.566-1.427 6.564 0l61.362 43.382c2.568 1.712 3.14 5.137 1.427 7.705-1.142 1.427-2.854 2.284-4.852 2.284"/></g><path fill="transparent" stroke="transparent" d="M923 0h154v154H923z"/></g></svg>